<svg viewBox="0 0 19 20" xmlns="http://www.w3.org/2000/svg"><path clip-rule="evenodd" d="m13.6081 1.22606v.93515.00015c1.2327.09173 2.385.64578 3.2263 1.5514.8412.9054 1.3092 2.09564 1.3097 3.33146v7.66088c0 1.2974-.5153 2.5419-1.4321 3.4597-.9172.918-2.1612 1.4341-3.4589 1.4352h-8.36211c-1.29831-.0011-2.54284-.5177-3.46027-1.4366-.917153-.9189-1.43184316-2.1643-1.43072-3.4625v-7.66085c.00165786-1.23525.469949-2.42441 1.3112-3.32888.84097-.90476 1.99298-1.45826 3.22483-1.54995v-.93515c-.01547-.21347.0585-.423563.20419-.580222.14568-.156658.34987-.245817.56391-.245817.21403 0 .41822.089159.5639.245817.14569.156659.21966.366752.20419.580222v.92305l5.99968.00028v-.92334c-.0155-.21346.0585-.423559.2042-.580218.1456-.156659.3498-.245818.5639-.245818.214 0 .4182.089159.5639.245818s.2196.366758.2042.580218zm2.0163 15.85144c.6288-.6297.9824-1.4828.9835-2.3724l.0001-5.64494-15.07182.00028v5.64466c.00108.8896.35464 1.7427.98352 2.3724.62864.6294 1.48141.9841 2.37127.9863h8.36213c.8899-.0022 1.7427-.3569 2.3713-.9863zm-14.08837-9.54938h15.07187l-.0002-.48797c-.0011-.88935-.3548-1.7421-.9838-2.37097-.6289-.62888-1.4814-.98269-2.3709-.98382h-8.36218c-.88964.00116-1.7421.35489-2.37097.98382-.62888.62892-.98269 1.48162-.98382 2.37097zm3.22947 5.82598c.5524 0 .99987-.4478.99987-.9999 0-.5524-.44749-.9999-.99987-.9999-.55212 0-.99988.4475-.99988.9999 0 .5521.44778.9999.99988.9999zm5.3069-.9999c0 .5521-.44747.9999-.99987.9999-.55241 0-.99987-.4478-.99987-.9999 0-.5524.44746-.9999.99987-.9999.5524 0 .99987.4475.99987.9999zm3.3064.9999c.5521 0 .9998-.4478.9998-.9999 0-.5524-.4477-.9999-.9998-.9999-.5524 0-.9999.4475-.9999.9999 0 .5521.4475.9999.9999.9999z" fill-rule="evenodd"/></svg>