<svg viewBox="0 0 23 23" xmlns="http://www.w3.org/2000/svg"><path d="m3.92237 19.1983c2.003 1.926 4.67447 3.0019 7.45433 3.0019 2.7798 0 5.4511-1.0759 7.4542-3.0019.025-.0201.0488-.0418.071-.0647 1.5418-1.4967 2.6015-3.4189 3.0437-5.5208.4422-2.102.2468-4.28782-.5613-6.27799-.8081-1.99018-2.1921-3.69417-3.975-4.89396-1.7827-1.19983-3.8834-1.84063-6.0326-1.84063-2.14929 0-4.24998.6408-6.03266 1.84063-1.7829 1.19966-3.16686 2.90369-3.97497 4.89396-.808115 1.99035-1.003575 4.17619-.561343 6.27799.442183 2.1019 1.501873 4.0241 3.043733 5.5208.02222.0229.04594.0446.07091.0647zm7.45433 1.46c-2.24841-.0008-4.41839-.8235-6.10233-2.3126.62971-1.6601 1.90946-2.992 3.5438-3.688 1.63443-.696 3.48213-.696 5.11663 0 1.6343.696 2.914 2.0279 3.5438 3.688-1.6836 1.4891-3.8538 2.3118-6.1023 2.3126zm-3.29329-11.35649c0-.8729.34698-1.70985.96448-2.32708.61767-.61723 1.45541-.96377 2.32881-.96377.8733 0 1.711.34655 2.3287.96377.6175.61723.9645 1.45418.9645 2.32708 0 .87269-.347 1.70969-.9645 2.32689-.6177.6172-1.4554.964-2.3287.964-.8731-.0011-1.7103-.3481-2.32762-.965-.61733-.6171-.96465-1.4535-.96567-2.32589zm3.29329-7.14448c2.3303-.00326 4.5757.8729 6.2869 2.45337 1.7115 1.58047 2.7624 3.74857 2.9425 6.0701.18 2.3217-.524 4.6257-1.9713 6.4507-.8985-1.8241-2.4496-3.2447-4.3462-3.9809 1.0862-.8187 1.777-2.0567 1.9031-3.41041.1261-1.3537-.3242-2.69789-1.2407-3.7028-.9164-1.00487-2.2141-1.57752-3.5746-1.57752s-2.65821.57265-3.57463 1.57752-1.36672 2.3491-1.24069 3.7028c.12603 1.35371.81689 2.59171 1.90311 3.41041-1.89654.7362-3.4477 2.1568-4.34622 3.9809-1.44731-1.8252-2.15125-4.129-1.97131-6.4507.18011-2.32158 1.23103-4.48959 2.94248-6.0701 1.71126-1.58047 3.95689-2.45667 6.28696-2.45337z"/></svg>